<?xml version="1.0" standalone="no"?>
<!DOCTYPE svg PUBLIC "-//W3C//DTD SVG 20010904//EN"
 "http://www.w3.org/TR/2001/REC-SVG-20010904/DTD/svg10.dtd">
<svg version="1.0" xmlns="http://www.w3.org/2000/svg"
 width="256.000000pt" height="256.000000pt" viewBox="0 0 256.000000 256.000000"
 preserveAspectRatio="xMidYMid meet">

<g transform="translate(0.000000,256.000000) scale(0.100000,-0.100000)"
fill="#000000" stroke="none">
<path d="M1149 2545 c-316 -38 -565 -160 -780 -382 -126 -130 -198 -238 -264
-397 -48 -117 -73 -215 -90 -363 -13 -107 -13 -139 0 -245 38 -325 161 -577
387 -794 328 -315 789 -428 1238 -304 104 29 300 127 396 198 209 155 374 381
452 622 23 69 26 84 47 195 34 173 25 345 -25 539 -23 87 -95 259 -110 264 -6
2 -8 7 -6 11 7 10 -101 168 -163 239 -145 167 -409 331 -607 377 -10 2 -37 9
-59 15 -39 10 -280 41 -300 39 -5 -1 -58 -7 -116 -14z m346 -589 c112 -36 198
-89 285 -176 87 -87 139 -172 177 -285 24 -71 27 -95 27 -215 0 -119 -3 -144
-27 -215 -77 -232 -261 -406 -498 -471 -99 -27 -273 -25 -369 5 -211 65 -358
190 -450 382 -22 47 -42 95 -45 109 -31 158 -32 216 -9 327 30 148 87 255 193
361 101 103 219 168 361 198 99 21 256 12 355 -20z"/>
</g>
</svg>
